<svg width="108" height="108" viewBox="0 0 108 108" fill="none" xmlns="http://www.w3.org/2000/svg">
<circle cx="54" cy="54" r="54" fill="#9D7BFF"/>
<path d="M31.375 64L28.5 75.5L40 72.625L73.3098 39.3152C74.3877 38.237 74.9933 36.7747 74.9933 35.25C74.9933 33.7253 74.3877 32.263 73.3098 31.1847L72.8152 30.6902C71.737 29.6123 70.2747 29.0067 68.75 29.0067C67.2253 29.0067 65.763 29.6123 64.6848 30.6902L31.375 64Z" stroke="#2A2931" stroke-width="4" stroke-linecap="round" stroke-linejoin="round"/>
<path d="M31.375 64L28.5 75.5L40 72.625L68.75 43.875L60.125 35.25L31.375 64Z" fill="#2A2931"/>
<path d="M60.125 35.25L68.75 43.875M54.375 75.5H77.375" stroke="#2A2931" stroke-width="4" stroke-linecap="round" stroke-linejoin="round"/>
</svg>
