<svg width="108" height="108" viewBox="0 0 108 108" fill="none" xmlns="http://www.w3.org/2000/svg">
<circle cx="54" cy="54" r="54" fill="#9D7BFF"/>
<g clip-path="url(#clip0_50_1169)">
<path d="M69.9583 28.1667C73.5989 28.1667 76.3935 30.9416 78.464 33.9271L79.1651 34.9837L79.807 36.0371C80.011 36.3794 80.2053 36.7217 80.3929 37.0509C82.9834 41.6823 85.2382 47.7291 86.7293 53.7034C88.2106 59.6317 89.0302 65.8234 88.5068 70.6917C87.9802 75.5799 85.462 80.8334 79.8333 80.8334C74.7839 80.8334 70.8043 78.1342 67.5718 75.4976L63.9181 72.433C60.8799 69.9445 57.5553 67.6667 53.5 67.6667C49.4446 67.6667 46.1168 69.9445 43.0851 72.433L39.4314 75.4943C36.1924 78.1342 32.2128 80.8334 27.1666 80.8334C21.5346 80.8334 19.0165 75.5799 18.4931 70.6917C17.973 65.8201 18.7893 59.6317 20.2706 53.7034C21.7617 47.7291 24.0165 41.6823 26.607 37.0509L27.193 36.0338L27.8348 34.9837L28.536 33.9271C30.6064 30.9416 33.401 28.1667 37.0416 28.1667C38.7204 28.1667 40.3893 28.5749 42.0285 29.0554L43.9805 29.6545C44.303 29.7533 44.6223 29.8487 44.9416 29.9376C47.7889 30.7539 50.702 31.4584 53.5 31.4584C56.2979 31.4584 59.211 30.7539 62.0583 29.9376L64.9714 29.0587C66.6107 28.5749 68.2795 28.1667 69.9583 28.1667ZM41.9791 41.3334C39.7966 41.3334 37.7035 42.2004 36.1602 43.7436C34.617 45.2869 33.75 47.38 33.75 49.5625C33.75 51.745 34.617 53.8382 36.1602 55.3814C37.7035 56.9247 39.7966 57.7917 41.9791 57.7917C44.1616 57.7917 46.2548 56.9247 47.798 55.3814C49.3413 53.8382 50.2083 51.745 50.2083 49.5625C50.2083 47.38 49.3413 45.2869 47.798 43.7436C46.2548 42.2004 44.1616 41.3334 41.9791 41.3334ZM65.0208 41.3334C64.1478 41.3334 63.3105 41.6802 62.6932 42.2975C62.0759 42.9148 61.7291 43.752 61.7291 44.625V46.2709H60.0833C59.2103 46.2709 58.373 46.6177 57.7557 47.235C57.1384 47.8523 56.7916 48.6895 56.7916 49.5625C56.7916 50.4355 57.1384 51.2728 57.7557 51.8901C58.373 52.5074 59.2103 52.8542 60.0833 52.8542H61.7291V54.5C61.7291 55.373 62.0759 56.2103 62.6932 56.8276C63.3105 57.4449 64.1478 57.7917 65.0208 57.7917C65.8938 57.7917 66.7311 57.4449 67.3484 56.8276C67.9657 56.2103 68.3125 55.373 68.3125 54.5V52.8542H69.9583C70.8313 52.8542 71.6686 52.5074 72.2859 51.8901C72.9032 51.2728 73.25 50.4355 73.25 49.5625C73.25 48.6895 72.9032 47.8523 72.2859 47.235C71.6686 46.6177 70.8313 46.2709 69.9583 46.2709H68.3125V44.625C68.3125 43.752 67.9657 42.9148 67.3484 42.2975C66.7311 41.6802 65.8938 41.3334 65.0208 41.3334ZM41.9791 47.9167C42.4156 47.9167 42.8343 48.0901 43.1429 48.3987C43.4516 48.7074 43.625 49.126 43.625 49.5625C43.625 49.999 43.4516 50.4176 43.1429 50.7263C42.8343 51.035 42.4156 51.2084 41.9791 51.2084C41.5426 51.2084 41.124 51.035 40.8153 50.7263C40.5067 50.4176 40.3333 49.999 40.3333 49.5625C40.3333 49.126 40.5067 48.7074 40.8153 48.3987C41.124 48.0901 41.5426 47.9167 41.9791 47.9167Z" fill="#2A2931"/>
</g>
<defs>
<clipPath id="clip0_50_1169">
<rect width="79" height="79" fill="white" transform="translate(14 15)"/>
</clipPath>
</defs>
</svg>
