<svg width="108" height="108" viewBox="0 0 108 108" fill="none" xmlns="http://www.w3.org/2000/svg">
<circle cx="54" cy="54" r="54" fill="#9D7BFF"/>
<path d="M44.2875 53.5C47.2612 53.5 50.1132 52.3187 52.2159 50.2159C54.3187 48.1132 55.5 45.2613 55.5 42.2875C55.5 39.3138 54.3187 36.4618 52.2159 34.3591C50.1132 32.2563 47.2612 31.075 44.2875 31.075C41.3137 31.075 38.4618 32.2563 36.3591 34.3591C34.2563 36.4618 33.075 39.3138 33.075 42.2875C33.075 45.2613 34.2563 48.1132 36.3591 50.2159C38.4618 52.3187 41.3137 53.5 44.2875 53.5ZM63.9076 71.2503C65.7361 71.9989 68.0614 72.475 71.0215 72.475C84.8215 72.475 84.8215 62.125 84.8215 62.125C84.8215 60.7531 84.2768 59.4374 83.307 58.467C82.3373 57.4966 81.0219 56.9509 79.65 56.95H63.6834C65.0392 58.5922 65.8534 60.6933 65.8534 62.9875V64.2157C65.8461 64.5062 65.8265 64.7963 65.7948 65.0851C65.5599 67.2403 64.9174 69.3318 63.9076 71.2503ZM79.65 44.875C79.65 47.1625 78.7413 49.3563 77.1238 50.9738C75.5063 52.5913 73.3125 53.5 71.025 53.5C68.7375 53.5 66.5437 52.5913 64.9262 50.9738C63.3087 49.3563 62.4 47.1625 62.4 44.875C62.4 42.5875 63.3087 40.3937 64.9262 38.7762C66.5437 37.1587 68.7375 36.25 71.025 36.25C73.3125 36.25 75.5063 37.1587 77.1238 38.7762C78.7413 40.3937 79.65 42.5875 79.65 44.875ZM26.175 63.85C26.175 62.02 26.9019 60.265 28.196 58.971C29.49 57.677 31.245 56.95 33.075 56.95H55.5C57.33 56.95 59.085 57.677 60.379 58.971C61.673 60.265 62.4 62.02 62.4 63.85C62.4 63.85 62.4 77.65 44.2875 77.65C26.175 77.65 26.175 63.85 26.175 63.85Z" fill="#292731"/>
</svg>
