<svg width="29" height="29" viewBox="0 0 29 29" fill="#ffffff" xmlns="http://www.w3.org/2000/svg">
<path fill-rule="evenodd" clip-rule="evenodd" d="M14.5 29C22.5081 29 29 22.5081 29 14.5C29 6.49187 22.5081 0 14.5 0C6.49187 0 0 6.49187 0 14.5C0 22.5081 6.49187 29 14.5 29ZM11.5102 6.89944C10.8184 7.59119 10.4298 8.5294 10.4298 9.50768C10.4298 10.486 10.8184 11.4242 11.5102 12.1159C12.2019 12.8077 13.1401 13.1963 14.1184 13.1963C15.0967 13.1963 16.0349 12.8077 16.7267 12.1159C17.4184 11.4242 17.807 10.486 17.807 9.50768C17.807 8.5294 17.4184 7.59119 16.7267 6.89944C16.0349 6.2077 15.0967 5.81908 14.1184 5.81908C13.1401 5.81908 12.2019 6.2077 11.5102 6.89944ZM7.16954 16.391C8.03422 15.5263 9.20698 15.0406 10.4298 15.0406H17.807C19.0299 15.0406 20.2026 15.5263 21.0673 16.391C21.932 17.2557 22.4178 18.4285 22.4178 19.6513C22.4178 20.385 22.1263 21.0887 21.6075 21.6075C21.0887 22.1263 20.385 22.4178 19.6513 22.4178H8.58553C7.85182 22.4178 7.14816 22.1263 6.62935 21.6075C6.11054 21.0887 5.81908 20.385 5.81908 19.6513C5.81908 18.4285 6.30485 17.2557 7.16954 16.391Z" fill="inherit"/>
</svg>
