<svg width="29" height="29" viewBox="0 0 29 29" fill="#EF7BF1" xmlns="http://www.w3.org/2000/svg">
<circle cx="14.5" cy="14.5" r="14.5" fill="inherit"/>
<path fill-rule="evenodd" clip-rule="evenodd" d="M10.4298 9.50763C10.4298 8.52935 10.8185 7.59114 11.5102 6.8994C12.2019 6.20765 13.1402 5.81903 14.1184 5.81903C15.0967 5.81903 16.0349 6.20765 16.7267 6.8994C17.4184 7.59114 17.807 8.52935 17.807 9.50763C17.807 10.4859 17.4184 11.4241 16.7267 12.1159C16.0349 12.8076 15.0967 13.1962 14.1184 13.1962C13.1402 13.1962 12.2019 12.8076 11.5102 12.1159C10.8185 11.4241 10.4298 10.4859 10.4298 9.50763ZM10.4298 15.0405C9.20699 15.0405 8.03423 15.5263 7.16955 16.391C6.30487 17.2557 5.81909 18.4284 5.81909 19.6513C5.81909 20.385 6.11056 21.0886 6.62937 21.6074C7.14818 22.1263 7.85183 22.4177 8.58554 22.4177H19.6513C20.385 22.4177 21.0887 22.1263 21.6075 21.6074C22.1263 21.0886 22.4178 20.385 22.4178 19.6513C22.4178 18.4284 21.932 17.2557 21.0673 16.391C20.2026 15.5263 19.0299 15.0405 17.807 15.0405H10.4298Z" fill="#2C2A31"/>
</svg>
